<svg xmlns="http://www.w3.org/2000/svg" version="1.1" xmlns:xlink="http://www.w3.org/1999/xlink" xmlns:svgjs="http://svgjs.com/svgjs" width="1440" height="560" preserveAspectRatio="none" viewBox="0 0 1440 560"><g mask="url(&quot;#SvgjsMask1018&quot;)" fill="none"><path d="M1384.1487763888229 511.8966041242021L1284.991310451328 419.253939840956 1256.2934817743876 534.3546439323064z" fill="rgba(200, 185, 12, 0.4)" class="triangle-float1"></path><path d="M348.5711674665852 411.80679076581384L416.83701917723914 530.3073799521785 478.4085700934289 427.83511106586366z" fill="rgba(200, 185, 12, 0.4)" class="triangle-float3"></path><path d="M1203.2390701954635 29.98676508136091L1210.8364298582742 138.6340700514216 1370.0087074819598 72.91437807217535z" fill="rgba(200, 185, 12, 0.4)" class="triangle-float1"></path><path d="M333.09625604864135 347.3025611047594L202.28118392559674 432.25486224614457 418.04855719002654 478.117633227804z" fill="rgba(200, 185, 12, 0.4)" class="triangle-float1"></path><path d="M818.7885798360766 52.33543960093533L743.4050785182263-34.55045610759113 709.0135691494775 59.939439304008516z" fill="rgba(200, 185, 12, 0.4)" class="triangle-float1"></path><path d="M856.2754831773956 264.1494239579361L767.442767546775 370.01613195062794 962.1421911700874 352.9821395885566z" fill="rgba(200, 185, 12, 0.4)" class="triangle-float2"></path><path d="M1330.427585726516 404.80834708133307L1322.5438084564491 314.69636054114557 1191.3177172812013 371.57801971634z" fill="rgba(200, 185, 12, 0.4)" class="triangle-float1"></path><path d="M153.49140821921227 474.98902374112754L132.3996454597294 413.7340969056797 51.063136586299095 475.99920446262786z" fill="rgba(200, 185, 12, 0.4)" class="triangle-float3"></path><path d="M384.321377184065 10.543479658856114L211.116460040504-32.81672747730518 251.51310620494908 117.94560846378631z" fill="rgba(200, 185, 12, 0.4)" class="triangle-float2"></path><path d="M458.69776507496397 258.51227276460156L506.4341697400526 317.461823148726 570.990292983695 216.38244095903087z" fill="rgba(200, 185, 12, 0.4)" class="triangle-float2"></path><path d="M838.2301643608271 274.5054218173146L677.380048277053 299.8244620420161 765.0130433899836 411.9895808408287z" fill="rgba(200, 185, 12, 0.4)" class="triangle-float2"></path><path d="M726.2917097658218 378.03848478331116L873.6073248976288 459.8804931898706 873.6073248976288 312.5648780580636z" fill="rgba(200, 185, 12, 0.4)" class="triangle-float3"></path><path d="M369.795754287783 131.60393339210336L460.88173155519894 166.6681986504684 449.00754767683907 82.17899020436352z" fill="rgba(200, 185, 12, 0.4)" class="triangle-float3"></path><path d="M377.8884475693341 452.82788435969684L469.64514166046655 410.0410352180162 359.5865209023794 293.7994186521579z" fill="rgba(200, 185, 12, 0.4)" class="triangle-float2"></path><path d="M1048.3558072752342 515.7268910209405L976.7289812632448 436.1772416545319 968.8061579088256 587.3537170329298z" fill="rgba(200, 185, 12, 0.4)" class="triangle-float3"></path><path d="M226.87336650380948 39.631646489193784L98.38707643211603 102.29859734108496 289.54031735570067 168.11793656088724z" fill="rgba(200, 185, 12, 0.4)" class="triangle-float2"></path><path d="M564.9724460729765 454.46576708251195L524.4767350450908 549.6154624044697 614.3770399255949 540.166559609853z" fill="rgba(200, 185, 12, 0.4)" class="triangle-float2"></path><path d="M-47.17564551486528 461.0594886810784L38.336199374915594 493.8844105037922-14.350723692151476 375.5476437912975z" fill="rgba(200, 185, 12, 0.4)" class="triangle-float3"></path><path d="M295.0343692331091 477.22856859715773L428.5291816398301 510.6477278971257 397.3941377246882 394.450162109928z" fill="rgba(200, 185, 12, 0.4)" class="triangle-float2"></path><path d="M937.655724054051-47.529120904267L886.846197872605 84.45811204159673 1009.2744483139261 67.25194353341999z" fill="rgba(200, 185, 12, 0.4)" class="triangle-float3"></path></g><defs><mask id="SvgjsMask1018"><rect width="1440" height="560" fill="#ffffff"></rect></mask><style>
            @keyframes float1 {
                0%{transform: translate(0, 0)}
                50%{transform: translate(-10px, 0)}
                100%{transform: translate(0, 0)}
            }

            .triangle-float1 {
                animation: float1 5s infinite;
            }

            @keyframes float2 {
                0%{transform: translate(0, 0)}
                50%{transform: translate(-5px, -5px)}
                100%{transform: translate(0, 0)}
            }

            .triangle-float2 {
                animation: float2 4s infinite;
            }

            @keyframes float3 {
                0%{transform: translate(0, 0)}
                50%{transform: translate(0, -10px)}
                100%{transform: translate(0, 0)}
            }

            .triangle-float3 {
                animation: float3 6s infinite;
            }
        </style></defs></svg>